# xmcd
#
# Track frame offsets:
# 150
# 20255
# 39337
# 52194
# 67642
# 86244
# 100701
# 120964
# 139569
# 160181
# 175719
# 192034
# 207717
# 220684
# 238184
# 249854
#
# Disc length: 3489 seconds
#
#
# Revision: 0
# Processed by: cddbd v1.5.2PL0 Copyright (c) Steve Scherf et al.
# Submitted via: FreeRIP 2.951 
#
DISCID=cc0d9f10
DTITLE=JUNIOR E RODRIGO - SEU DESTINO
DYEAR=2004
DGENRE=Country
TTITLE0=AMOR ADOLESCENTE
TTITLE1=APARTAMENTO SOLIDAO
TTITLE2=TADIM TADIM
TTITLE3=TO INDO TE BUSCAR
TTITLE4=VIM PRA DIZER QUE TE AMO
TTITLE5=DESLIGUE O TELEFONE
TTITLE6=OUCA A VOZ DO CORACAO
TTITLE7=SENTIMENTOS
TTITLE8=SEGUE SEU CAMINHO
TTITLE9=ADIOS
TTITLE10=O TEMPO VAI DIZER
TTITLE11=SO VOCE ME FAZ VIVER
TTITLE12=DESEJOS
TTITLE13=DANCANDO A VANEIRA
TTITLE14=JOGUEI MEU LACO
TTITLE15=NA MAGIA DO RODEIO
EXTD=
EXTT0=
EXTT1=
EXTT2=
EXTT3=
EXTT4=
EXTT5=
EXTT6=
EXTT7=
EXTT8=
EXTT9=
EXTT10=
EXTT11=
EXTT12=
EXTT13=
EXTT14=
EXTT15=
PLAYORDER=
